{
	"asset":{
		"generator":"Khronos glTF Blender I/O v3.5.30",
		"version":"2.0"
	},
	"extensionsUsed":[
		"KHR_materials_specular",
		"KHR_materials_ior"
	],
	"scene":0,
	"scenes":[
		{
			"name":"Scene",
			"nodes":[
				0
			]
		}
	],
	"nodes":[
		{
			"mesh":0,
			"name":"Berlin School.005",
			"rotation":[
				0.7071068286895752,
				0,
				0,
				0.7071068286895752
			]
		}
	],
	"materials":[
		{
			"doubleSided":true,
			"extensions":{
				"KHR_materials_specular":{
					"specularColorFactor":[
						0.7825480438613255,
						0.7825480438613255,
						0.7825480438613255
					]
				},
				"KHR_materials_ior":{
					"ior":1.4500000476837158
				}
			},
			"name":"FrontColor.005",
			"pbrMetallicRoughness":{
				"baseColorFactor":[
					0.8901960253715515,
					0.8823530077934265,
					0.8705880045890808,
					1
				],
				"metallicFactor":0
			}
		},
		{
			"doubleSided":true,
			"extensions":{
				"KHR_materials_specular":{
					"specularColorFactor":[
						0.7825480438613255,
						0.7825480438613255,
						0.7825480438613255
					]
				},
				"KHR_materials_ior":{
					"ior":1.4500000476837158
				}
			},
			"name":"Color_E05.001",
			"pbrMetallicRoughness":{
				"baseColorFactor":[
					1,
					1,
					0,
					1
				],
				"metallicFactor":0
			}
		},
		{
			"doubleSided":true,
			"extensions":{
				"KHR_materials_specular":{
					"specularColorFactor":[
						0.7825480438613255,
						0.7825480438613255,
						0.7825480438613255
					]
				},
				"KHR_materials_ior":{
					"ior":1.4500000476837158
				}
			},
			"name":"Color_000.005",
			"pbrMetallicRoughness":{
				"metallicFactor":0
			}
		},
		{
			"doubleSided":true,
			"extensions":{
				"KHR_materials_specular":{
					"specularColorFactor":[
						0.7825480438613255,
						0.7825480438613255,
						0.7825480438613255
					]
				},
				"KHR_materials_ior":{
					"ior":1.4500000476837158
				}
			},
			"name":"Color_D05.005",
			"pbrMetallicRoughness":{
				"baseColorFactor":[
					1,
					0.9490200281143188,
					0.800000011920929,
					1
				],
				"metallicFactor":0
			}
		}
	],
	"meshes":[
		{
			"name":"Berlin School.005",
			"primitives":[
				{
					"attributes":{
						"POSITION":0,
						"TEXCOORD_0":1,
						"NORMAL":2
					},
					"indices":3,
					"material":0
				},
				{
					"attributes":{
						"POSITION":4,
						"TEXCOORD_0":5,
						"NORMAL":6
					},
					"indices":7,
					"material":1
				},
				{
					"attributes":{
						"POSITION":8,
						"TEXCOORD_0":9,
						"NORMAL":10
					},
					"indices":11,
					"material":2
				},
				{
					"attributes":{
						"POSITION":12,
						"TEXCOORD_0":13,
						"NORMAL":14
					},
					"indices":15,
					"material":3
				}
			]
		}
	],
	"accessors":[
		{
			"bufferView":0,
			"componentType":5126,
			"count":226,
			"max":[
				5.648530006408691,
				0.30000001192092896,
				0
			],
			"min":[
				-0.2485329955816269,
				-22.299999237060547,
				-4.475339889526367
			],
			"type":"VEC3"
		},
		{
			"bufferView":1,
			"componentType":5126,
			"count":226,
			"type":"VEC2"
		},
		{
			"bufferView":2,
			"componentType":5126,
			"count":226,
			"type":"VEC3"
		},
		{
			"bufferView":3,
			"componentType":5123,
			"count":510,
			"type":"SCALAR"
		},
		{
			"bufferView":4,
			"componentType":5126,
			"count":58,
			"max":[
				5.400000095367432,
				0,
				0
			],
			"min":[
				0,
				-22,
				-4.425340175628662
			],
			"type":"VEC3"
		},
		{
			"bufferView":5,
			"componentType":5126,
			"count":58,
			"type":"VEC2"
		},
		{
			"bufferView":6,
			"componentType":5126,
			"count":58,
			"type":"VEC3"
		},
		{
			"bufferView":7,
			"componentType":5123,
			"count":198,
			"type":"SCALAR"
		},
		{
			"bufferView":8,
			"componentType":5126,
			"count":64,
			"max":[
				0.20000000298023224,
				-2.0250000953674316,
				-0.8999999761581421
			],
			"min":[
				0,
				-19.975000381469727,
				-2.0999999046325684
			],
			"type":"VEC3"
		},
		{
			"bufferView":9,
			"componentType":5126,
			"count":64,
			"type":"VEC2"
		},
		{
			"bufferView":10,
			"componentType":5126,
			"count":64,
			"type":"VEC3"
		},
		{
			"bufferView":11,
			"componentType":5123,
			"count":96,
			"type":"SCALAR"
		},
		{
			"bufferView":12,
			"componentType":5126,
			"count":12,
			"max":[
				0.20000000298023224,
				-16.049999237060547,
				0
			],
			"min":[
				0,
				-16.950000762939453,
				-2.0999999046325684
			],
			"type":"VEC3"
		},
		{
			"bufferView":13,
			"componentType":5126,
			"count":12,
			"type":"VEC2"
		},
		{
			"bufferView":14,
			"componentType":5126,
			"count":12,
			"type":"VEC3"
		},
		{
			"bufferView":15,
			"componentType":5123,
			"count":18,
			"type":"SCALAR"
		}
	],
	"bufferViews":[
		{
			"buffer":0,
			"byteLength":2712,
			"byteOffset":0,
			"target":34962
		},
		{
			"buffer":0,
			"byteLength":1808,
			"byteOffset":2712,
			"target":34962
		},
		{
			"buffer":0,
			"byteLength":2712,
			"byteOffset":4520,
			"target":34962
		},
		{
			"buffer":0,
			"byteLength":1020,
			"byteOffset":7232,
			"target":34963
		},
		{
			"buffer":0,
			"byteLength":696,
			"byteOffset":8252,
			"target":34962
		},
		{
			"buffer":0,
			"byteLength":464,
			"byteOffset":8948,
			"target":34962
		},
		{
			"buffer":0,
			"byteLength":696,
			"byteOffset":9412,
			"target":34962
		},
		{
			"buffer":0,
			"byteLength":396,
			"byteOffset":10108,
			"target":34963
		},
		{
			"buffer":0,
			"byteLength":768,
			"byteOffset":10504,
			"target":34962
		},
		{
			"buffer":0,
			"byteLength":512,
			"byteOffset":11272,
			"target":34962
		},
		{
			"buffer":0,
			"byteLength":768,
			"byteOffset":11784,
			"target":34962
		},
		{
			"buffer":0,
			"byteLength":192,
			"byteOffset":12552,
			"target":34963
		},
		{
			"buffer":0,
			"byteLength":144,
			"byteOffset":12744,
			"target":34962
		},
		{
			"buffer":0,
			"byteLength":96,
			"byteOffset":12888,
			"target":34962
		},
		{
			"buffer":0,
			"byteLength":144,
			"byteOffset":12984,
			"target":34962
		},
		{
			"buffer":0,
			"byteLength":36,
			"byteOffset":13128,
			"target":34963
		}
	],
	"buffers":[
		{
			"byteLength":13164,
			"uri":"school.bin"
		}
	]
}
