{
	"asset":{
		"generator":"Khronos glTF Blender I/O v3.5.30",
		"version":"2.0"
	},
	"extensionsUsed":[
		"KHR_materials_specular",
		"KHR_materials_ior"
	],
	"scene":0,
	"scenes":[
		{
			"name":"Scene",
			"nodes":[
				0
			]
		}
	],
	"nodes":[
		{
			"mesh":0,
			"name":"Berlin School.002",
			"rotation":[
				0.7071068286895752,
				0,
				0,
				0.7071068286895752
			]
		}
	],
	"materials":[
		{
			"doubleSided":true,
			"extensions":{
				"KHR_materials_specular":{
					"specularColorFactor":[
						0.7825480438613255,
						0.7825480438613255,
						0.7825480438613255
					]
				},
				"KHR_materials_ior":{
					"ior":1.4500000476837158
				}
			},
			"name":"FrontColor.002",
			"pbrMetallicRoughness":{
				"baseColorFactor":[
					0.8901960253715515,
					0.8823530077934265,
					0.8705880045890808,
					1
				],
				"metallicFactor":0
			}
		},
		{
			"doubleSided":true,
			"extensions":{
				"KHR_materials_specular":{
					"specularColorFactor":[
						0.7825480438613255,
						0.7825480438613255,
						0.7825480438613255
					]
				},
				"KHR_materials_ior":{
					"ior":1.4500000476837158
				}
			},
			"name":"BackColor.002",
			"pbrMetallicRoughness":{
				"baseColorFactor":[
					0.5450980067253113,
					0.5333330035209656,
					0.6039220094680786,
					1
				],
				"metallicFactor":0
			}
		},
		{
			"doubleSided":true,
			"extensions":{
				"KHR_materials_specular":{
					"specularColorFactor":[
						0.7825480438613255,
						0.7825480438613255,
						0.7825480438613255
					]
				},
				"KHR_materials_ior":{
					"ior":1.4500000476837158
				}
			},
			"name":"Color_000.002",
			"pbrMetallicRoughness":{
				"metallicFactor":0
			}
		},
		{
			"doubleSided":true,
			"extensions":{
				"KHR_materials_specular":{
					"specularColorFactor":[
						0.7825480438613255,
						0.7825480438613255,
						0.7825480438613255
					]
				},
				"KHR_materials_ior":{
					"ior":1.4500000476837158
				}
			},
			"name":"Metal_Corrogated_Shiny.002",
			"pbrMetallicRoughness":{
				"baseColorTexture":{
					"index":0
				},
				"metallicFactor":0
			}
		},
		{
			"doubleSided":true,
			"extensions":{
				"KHR_materials_specular":{
					"specularColorFactor":[
						0.7825480438613255,
						0.7825480438613255,
						0.7825480438613255
					]
				},
				"KHR_materials_ior":{
					"ior":1.4500000476837158
				}
			},
			"name":"Color_D05.002",
			"pbrMetallicRoughness":{
				"baseColorFactor":[
					1,
					0.9490200281143188,
					0.800000011920929,
					1
				],
				"metallicFactor":0
			}
		}
	],
	"meshes":[
		{
			"name":"Berlin School.002",
			"primitives":[
				{
					"attributes":{
						"POSITION":0,
						"TEXCOORD_0":1,
						"NORMAL":2
					},
					"indices":3,
					"material":0
				},
				{
					"attributes":{
						"POSITION":4,
						"TEXCOORD_0":5,
						"NORMAL":6
					},
					"indices":7,
					"material":1
				},
				{
					"attributes":{
						"POSITION":8,
						"TEXCOORD_0":9,
						"NORMAL":10
					},
					"indices":11,
					"material":2
				},
				{
					"attributes":{
						"POSITION":12,
						"TEXCOORD_0":13,
						"NORMAL":14
					},
					"indices":15,
					"material":3
				},
				{
					"attributes":{
						"POSITION":16,
						"TEXCOORD_0":17,
						"NORMAL":18
					},
					"indices":19,
					"material":4
				}
			]
		}
	],
	"textures":[
		{
			"sampler":0,
			"source":0
		}
	],
	"images":[
		{
			"mimeType":"image/jpeg",
			"name":"Metal_Corrogated_Shiny",
			"uri":"Metal_Corrogated_Shiny.jpg"
		}
	],
	"accessors":[
		{
			"bufferView":0,
			"componentType":5126,
			"count":162,
			"max":[
				5.648530006408691,
				0.30000001192092896,
				0
			],
			"min":[
				-0.2485329955816269,
				-22.299999237060547,
				-4.475339889526367
			],
			"type":"VEC3"
		},
		{
			"bufferView":1,
			"componentType":5126,
			"count":162,
			"type":"VEC2"
		},
		{
			"bufferView":2,
			"componentType":5126,
			"count":162,
			"type":"VEC3"
		},
		{
			"bufferView":3,
			"componentType":5123,
			"count":255,
			"type":"SCALAR"
		},
		{
			"bufferView":4,
			"componentType":5126,
			"count":272,
			"max":[
				5.648530006408691,
				0.30000001192092896,
				0
			],
			"min":[
				-0.2485329955816269,
				-22.299999237060547,
				-4.475339889526367
			],
			"type":"VEC3"
		},
		{
			"bufferView":5,
			"componentType":5126,
			"count":272,
			"type":"VEC2"
		},
		{
			"bufferView":6,
			"componentType":5126,
			"count":272,
			"type":"VEC3"
		},
		{
			"bufferView":7,
			"componentType":5123,
			"count":432,
			"type":"SCALAR"
		},
		{
			"bufferView":8,
			"componentType":5126,
			"count":74,
			"max":[
				5.400000095367432,
				0,
				0
			],
			"min":[
				0,
				-22,
				-2.5999999046325684
			],
			"type":"VEC3"
		},
		{
			"bufferView":9,
			"componentType":5126,
			"count":74,
			"type":"VEC2"
		},
		{
			"bufferView":10,
			"componentType":5126,
			"count":74,
			"type":"VEC3"
		},
		{
			"bufferView":11,
			"componentType":5123,
			"count":120,
			"type":"SCALAR"
		},
		{
			"bufferView":12,
			"componentType":5126,
			"count":7,
			"max":[
				5.648530006408691,
				0.30000001192092896,
				-2.481980085372925
			],
			"min":[
				-0.2485329955816269,
				-22.299999237060547,
				-4.475339889526367
			],
			"type":"VEC3"
		},
		{
			"bufferView":13,
			"componentType":5126,
			"count":7,
			"type":"VEC2"
		},
		{
			"bufferView":14,
			"componentType":5126,
			"count":7,
			"type":"VEC3"
		},
		{
			"bufferView":15,
			"componentType":5123,
			"count":9,
			"type":"SCALAR"
		},
		{
			"bufferView":16,
			"componentType":5126,
			"count":6,
			"max":[
				0.20000000298023224,
				-16.049999237060547,
				0
			],
			"min":[
				0,
				-16.950000762939453,
				-2.0999999046325684
			],
			"type":"VEC3"
		},
		{
			"bufferView":17,
			"componentType":5126,
			"count":6,
			"type":"VEC2"
		},
		{
			"bufferView":18,
			"componentType":5126,
			"count":6,
			"type":"VEC3"
		},
		{
			"bufferView":19,
			"componentType":5123,
			"count":6,
			"type":"SCALAR"
		}
	],
	"bufferViews":[
		{
			"buffer":0,
			"byteLength":1944,
			"byteOffset":0,
			"target":34962
		},
		{
			"buffer":0,
			"byteLength":1296,
			"byteOffset":1944,
			"target":34962
		},
		{
			"buffer":0,
			"byteLength":1944,
			"byteOffset":3240,
			"target":34962
		},
		{
			"buffer":0,
			"byteLength":510,
			"byteOffset":5184,
			"target":34963
		},
		{
			"buffer":0,
			"byteLength":3264,
			"byteOffset":5696,
			"target":34962
		},
		{
			"buffer":0,
			"byteLength":2176,
			"byteOffset":8960,
			"target":34962
		},
		{
			"buffer":0,
			"byteLength":3264,
			"byteOffset":11136,
			"target":34962
		},
		{
			"buffer":0,
			"byteLength":864,
			"byteOffset":14400,
			"target":34963
		},
		{
			"buffer":0,
			"byteLength":888,
			"byteOffset":15264,
			"target":34962
		},
		{
			"buffer":0,
			"byteLength":592,
			"byteOffset":16152,
			"target":34962
		},
		{
			"buffer":0,
			"byteLength":888,
			"byteOffset":16744,
			"target":34962
		},
		{
			"buffer":0,
			"byteLength":240,
			"byteOffset":17632,
			"target":34963
		},
		{
			"buffer":0,
			"byteLength":84,
			"byteOffset":17872,
			"target":34962
		},
		{
			"buffer":0,
			"byteLength":56,
			"byteOffset":17956,
			"target":34962
		},
		{
			"buffer":0,
			"byteLength":84,
			"byteOffset":18012,
			"target":34962
		},
		{
			"buffer":0,
			"byteLength":18,
			"byteOffset":18096,
			"target":34963
		},
		{
			"buffer":0,
			"byteLength":72,
			"byteOffset":18116,
			"target":34962
		},
		{
			"buffer":0,
			"byteLength":48,
			"byteOffset":18188,
			"target":34962
		},
		{
			"buffer":0,
			"byteLength":72,
			"byteOffset":18236,
			"target":34962
		},
		{
			"buffer":0,
			"byteLength":12,
			"byteOffset":18308,
			"target":34963
		}
	],
	"samplers":[
		{
			"magFilter":9729,
			"minFilter":9987
		}
	],
	"buffers":[
		{
			"byteLength":18320,
			"uri":"school.bin"
		}
	]
}
